<?xml version="1.0" encoding="UTF-8"?>
<svg version="1.1" viewBox="0 0 1200 800" width="1280" height="1280" xmlns="http://www.w3.org/2000/svg">
<path transform="translate(584,161)" d="m0 0 5 2 9 7 7 8 8 15 4 14 1 6v26l-4 18-7 16-4 8 20-1 5-13 3-13 1-8v-23l-4-20-5-13-6-11-2-4 5 2 10 9 7 9 7 14 4 13 2 12v23l-3 17-2 7h16l-2 9-8 16-7 10-10 12-11 9-11 7-12 6-15 5-14 3-9 1h-30l20 6 14 2h20l20-4 13-5 15-8 14-11 9-9 11-15 8-16 6-18h16v-29l-3-17-6-18-7-12 1-2 12 13 10 15 7 16 4 18 1 15 17 1-1 13-5 21-8 19-9 16-8 10-9 10-10 9-15 10-17 8-16 5-18 3h-33l18 5 20 3h18l19-3 15-5 17-9 14-11 9-9 10-13 10-18 6-15 5-18 2-13 1-18h17v22l-4 22-6 18-10 21-11 16-11 12-9 9-16 11-15 8-18 6-14 3-7 1-27 1 19 5 17 2h13l21-3 15-5 19-10 10-8 10-9 11-13 10-16 9-19 5-15 4-18 1-8v-33h17v326h-357v-326h134l-5 5-11 8-17 8-13 4-17 3-13 1h-19l19 5 11 2 11 1h12l19-3 14-5 14-8 10-9 9-10 1-2h-24l2-4 7-8 7-12 5-13 3-14v-27l-4-17-7-16zm39 120-10 16-10 11-14 10-17 8-20 5-8 1h-38l3 2 21 6 12 2 21 1 17-2 16-5 15-8 12-11 9-10 9-16 3-10zm75 0-6 23-8 18-10 16-12 13-9 8-14 9-16 7-18 5-17 2h-28l3 2 20 5 7 1h27l19-4 19-8 14-9 13-11 11-12 10-15 7-15 5-17 1-7v-11z" fill="#008696"/>
<path transform="translate(616,88)" d="m0 0h9l32 11 26 11 25 12 23 12 23 14 18 12 18 13 13 10 11 9 14 12 24 22 15 15 7 8 11 12 9 11 12 15 9 13v16l-3 30-6 37-8 36-12 42-15 44-12 30-13 30-19 40-12 22-10 18-3 3-55 9-47 6-32 3-15 1h-66l-46-4-47-6-50-8-7-2-12-21-14-27-12-24-15-34-12-30-13-36-11-36-11-44-6-32-4-30-2-25v-7l12-17 9-11 11-13 18-20 27-27 8-7 10-9 11-9 18-14 18-13 15-10 21-13 29-16 25-12 27-11zm3 11-27 9-27 11-29 14-21 11-23 14-15 10-17 12-13 10-11 9-13 11-20 18-27 27-7 8-13 15-13 17-6 8v15l4 35 5 29 8 36 10 35 12 36 12 32 15 35 13 28 14 28 13 23 1 2 21 4 46 7 43 5 40 3h53l40-3 50-6 51-8 9-3 10-18 14-27 15-31 15-35 11-29 10-29 10-32 10-40 7-38 4-33 1-20-14-19-12-14-9-11-10-10-7-8-15-15-8-7-13-12-11-9-15-12-19-14-21-14-25-15-22-12-25-12-27-11-29-10z" fill="#008696"/>
<path transform="translate(618,73)" d="m0 0 8 1 27 9 27 11 26 12 27 14 25 15 24 16 18 13 14 11 11 9 14 12 12 11 13 12 16 16 7 8 11 12 9 11 13 16 10 14v15l-4 38-6 35-8 36-10 36-14 43-13 34-13 31-13 28-14 29-12 22-10 17-4 2-55 9-56 7-34 3-18 1h-51l-42-3-44-5-48-7-30-5-4-2-16-29-13-25-13-28-13-29-16-41-11-31-10-33-8-30-7-32-6-37-3-28-1-20 14-19 13-16 13-15 14-15 27-27 8-7 10-9 11-9 15-12 19-14 24-16 28-17 29-15 23-11 27-11zm0 7-35 12-28 12-25 12-19 10-17 10-19 12-20 14-19 14-17 14-14 12-30 28-14 15-12 13-9 11-13 16-10 14 1 19 4 35 7 39 8 33 8 29 12 37 12 32 14 34 16 35 18 36 13 23 3 4 27 5 48 7 43 5 40 3h59l39-3 44-5 47-7 28-5 10-17 15-29 13-26 15-34 14-35 13-36 12-39 10-40 7-36 5-38 1-12v-15l-16-21-11-13-9-11-7-7-7-8-27-27-8-7-10-9-11-9-15-12-19-14-27-18-25-15-28-15-26-12-28-11-26-9z" fill="#008696"/>
<path transform="translate(508,197)" d="m0 0h14l11 4 8 6 6 9 2 6v15l-4 9-7 8-7 5-10 3h-12l-11-4-9-7-6-10-2-8v-7l3-10 6-9 8-6z" fill="#BF1E2E"/>
<path transform="translate(651,187)" d="m0 0 7 6 11 14 8 16 5 15 2 13v19l-2 11h-21l4-19 1-20-2-19-5-18-8-16z" fill="#008696"/>
<path transform="translate(522,458)" d="m0 0h13l7 6 2 4v13l-4 7-8 4h-7l-7-3-4-5-2-7 1-10 5-7z" fill="#fff"/>
<path transform="translate(608,551)" d="m0 0h22l5 5v8l-6 6 8 11v3h-7l-9-12-6-2v14h-6l-1-1z" fill="#fff"/>
<path transform="translate(614,504)" d="m0 0h17l7 3 2 3v7l-4 5-3 1 7 9 2 5h-8l-7-10v-2l-7-1v13h-7v-32z" fill="#fff"/>
<path transform="translate(718,220)" d="m0 0 5 2 8 7 9 13 6 15 3 15v9h-15l-1-19-3-16-5-13-7-12z" fill="#008696"/>
<path transform="translate(483,458)" d="m0 0h18l5 3 2 3v9l-5 5-4 1h-9v12h-7z" fill="#fff"/>
<path transform="translate(556,504)" d="m0 0h12l6 4 2 3v3l-6 1-2-4-7-1-6 3-1 2v11l2 4 2 1h8l4-1v-5h-8v-5h15v13l-4 3-6 2h-9l-8-4-4-8v-11l4-7z" fill="#fff"/>
<path transform="translate(682,458)" d="m0 0h7l12 20 1-20h6v33h-7l-12-20-1 20h-6z" fill="#fff"/>
<path transform="translate(484,504)" d="m0 0h6l12 20 1-20h6v33h-7l-11-18v-2h-2v20h-6v-32z" fill="#fff"/>
<path transform="translate(750,231)" d="m0 0 5 2 10 9 8 11 6 14 3 14h-16l-3-19-6-18-6-10z" fill="#008696"/>
<path transform="translate(518,551)" d="m0 0h8l12 31v2h-7l-3-7-13-1-2 7-1 1h-6l1-6 10-26z" fill="#fff"/>
<path transform="translate(676,551)" d="m0 0h7l4 8 9 23v2h-7l-3-7h-13l-3 7h-6l1-6 10-26z" fill="#fff"/>
<path transform="translate(584,551)" d="m0 0h8l12 30v3h-6l-3-6v-2l-13 1-3 7h-7l3-10z" fill="#fff"/>
<path transform="translate(649,458)" d="m0 0h7l1 13 9-10 3-3h8l-2 4-8 8 2 5 9 14v2h-8l-6-9-3-5-4 3-1 11h-7z" fill="#fff"/>
<path transform="translate(542,551)" d="m0 0h7l1 12 7-7 4-5h9l-6 7-4 5 2 5 9 14v2h-8l-8-13v-2l-5 4-1 10-1 1h-6z" fill="#fff"/>
<path transform="translate(728,458)" d="m0 0h7l1 13 11-12 1-1h9l-6 7-5 5 2 5 9 14v2h-8l-8-13v-2l-5 4-1 11h-7z" fill="#fff"/>
<path transform="translate(517,504)" d="m0 0h23l1 1v5h-18v7h16l1 5-1 1h-16v9h18v5h-25v-32z" fill="#fff"/>
<path transform="translate(618,458)" d="m0 0h25v5l-1 1h-17v7h16v6h-16v9h18v5h-25z" fill="#fff"/>
<path transform="translate(583,504)" d="m0 0h24v6h-18v7h17v6h-17v9h19v5h-25z" fill="#fff"/>
<path transform="translate(526,463)" d="m0 0 7 1 4 5v11l-2 4-3 2h-7l-5-5-1-3v-7l3-6z" fill="#008696"/>
<path transform="translate(639,551)" d="m0 0h26v5h-9v27l-1 1h-6v-28h-10z" fill="#fff"/>
<path transform="translate(588,458)" d="m0 0h26v6h-10v27h-6v-27h-10z" fill="#fff"/>
<path transform="translate(495,551)" d="m0 0h7v24l-3 7-3 2h-10l-5-5v-6h6l1 5h6z" fill="#fff"/>
<path transform="translate(550,458)" d="m0 0h6l1 27 16 1v5h-23z" fill="#fff"/>
<path transform="translate(646,504)" d="m0 0h7v33h-7z" fill="#fff"/>
<path transform="translate(715,458)" d="m0 0h7v33h-7z" fill="#fff"/>
<path transform="translate(577,458)" d="m0 0h7v33h-7z" fill="#fff"/>
<path transform="translate(615,556)" d="m0 0h11l2 2v5l-4 2h-9z" fill="#008696"/>
<path transform="translate(620,510)" d="m0 0h11l2 2v5l-1 1h-12z" fill="#008696"/>
<path transform="translate(490,464)" d="m0 0h9l2 1 1 4-3 4h-9z" fill="#008696"/>
<path transform="translate(679,559)" d="m0 0 2 2 3 9-1 1h-8l3-10z" fill="#008696"/>
<path transform="translate(521,559)" d="m0 0 3 4 2 8h-8l1-7z" fill="#008696"/>
<path transform="translate(587,560)" d="m0 0h2l3 8v3h-8l2-9z" fill="#008696"/>
<path transform="translate(749,230)" d="m0 0" fill="#008696"/>
<path transform="translate(717,219)" d="m0 0" fill="#008696"/>
<path transform="translate(650,186)" d="m0 0" fill="#008696"/>
<path transform="translate(649,185)" d="m0 0" fill="#008696"/>
<path transform="translate(614,174)" d="m0 0" fill="#008696"/>
</svg>
